<?xml version="1.0" encoding="UTF-8"?>
<svg width="22px" height="22px" viewBox="0 0 22 22" version="1.1" xmlns="http://www.w3.org/2000/svg" xmlns:xlink="http://www.w3.org/1999/xlink">
    <!-- Generator: sketchtool 52.2 (67145) - http://www.bohemiancoding.com/sketch -->
    <title>201079D3-0E4B-427C-80AC-4F66D65D69E0</title>
    <desc>Created with sketchtool.</desc>
    <g id="Symbols" stroke="none" stroke-width="1" fill="none" fill-rule="evenodd">
        <g id="Footer" transform="translate(-1011.000000, -64.000000)">
            <g id="Group-5-Copy" transform="translate(1011.000000, 64.000000)">
                <g id="Group-3">
                    <g id="Group-7">
                        <circle id="Oval" fill="#FFFFFF" cx="11" cy="11" r="11"></circle>
                        <path d="M15.1415,5 C15.376,5.50814293 15.52725,6.35273627 15.30075,6.97111632 C16.2265,7.72579825 16.544,9.56228659 16.09775,11.063281 C17.416,11.1594097 18.98625,11.0176079 20,11.4042748 C19.05275,11.2873422 17.75775,11.0584985 16.53625,11.1388449 C16.30475,11.1539098 15.961,11.1304755 15.9775,11.4415785 C17.3925,11.5479896 18.79875,11.6639658 19.961,12.0104595 C18.8085,11.8301584 17.41025,11.556359 15.9775,11.5180988 C15.38675,12.6343394 14.19625,13.1826555 12.55375,13.2986317 C12.7305,13.6656902 13.06825,13.8058181 13.15125,14.3969378 C13.2745,15.2807478 12.958,16.5744199 13.2695,17.1638657 C13.42,17.4457954 13.663,17.4534474 13.828,17.6942474 C13.42575,18.1502608 12.42775,17.6430744 12.3145,17.1638657 C12.11925,16.3417502 12.61025,15.0676865 12.07525,14.5110009 C12.11325,15.4067673 11.8535,16.6660052 12.11525,17.4663602 C12.21875,17.7812893 12.5155,17.9025262 12.4335,18.186608 C10.5635,18.3688221 11.34475,15.870911 11.04,14.3969378 C10.75775,14.4165461 10.88175,14.8015391 10.88075,14.9658188 C10.872,16.4053578 11.1885,18.3791045 9.5665,18.186608 C9.5185,17.8838744 9.78425,17.7812893 9.88475,17.5046204 C10.18075,16.6949395 9.83,15.4880701 9.96475,14.5110009 C9.34675,14.9574493 10.03025,16.5155949 9.6465,17.3149934 C9.42575,17.7745938 8.71375,17.9745032 8.17275,17.7700504 C8.24325,17.4271436 8.61325,17.4823817 8.7695,17.1638657 C8.98925,16.7181347 8.7715,16.0784724 8.8495,15.4208757 C7.704,15.6394369 6.8155,15.3890719 6.38,14.7006279 C6.1855,14.3914379 6.13775,14.0270097 5.90225,13.7534495 C5.668,13.4796501 5.294,13.4423465 5.1855,13.0714619 C6.6045,12.7445765 6.65925,14.4679582 7.9335,14.5110009 C8.32425,14.5248702 8.52725,14.4036333 8.88975,14.3213739 C8.99025,13.887121 9.207,13.562866 9.52625,13.3359353 C7.9405,13.128613 6.63075,12.6558608 6.0225,11.5180988 C4.58,11.5855324 3.26075,11.7694204 2.039,12.0477631 C3.1485,11.6630093 4.5165,11.5247944 5.9825,11.4788822 C5.8965,10.9829347 5.13875,11.1192365 4.668,11.1378884 C3.795,11.1754312 2.69425,11.2789728 2,11.4042748 C3.00675,11.0604115 4.42,11.1034542 5.78325,11.1005847 C5.36625,9.84995527 5.51075,7.86210012 6.421,7.12224401 C6.163,6.50027706 6.24325,5.4839912 6.58,5 C7.59575,5.0439992 8.212,5.46725237 8.8495,5.87161458 C9.6415,5.65687936 10.47375,5.54927262 11.5575,5.60642375 C12.01375,5.63057549 12.48825,5.82665888 12.832,5.79605074 C13.169,5.76520347 13.54,5.40364483 13.86725,5.26542996 C14.294,5.08608539 14.65425,5.01697795 15.1415,5 Z" id="Fill-1" fill="#0E0E2E"></path>
                    </g>
                </g>
            </g>
        </g>
    </g>
</svg>