<?xml version="1.0" encoding="UTF-8"?>
<svg width="22px" height="22px" viewBox="0 0 22 22" version="1.1" xmlns="http://www.w3.org/2000/svg" xmlns:xlink="http://www.w3.org/1999/xlink">
    <!-- Generator: sketchtool 52.2 (67145) - http://www.bohemiancoding.com/sketch -->
    <title>DB808367-AA58-43C6-A13E-FA2B56060FCA</title>
    <desc>Created with sketchtool.</desc>
    <g id="Symbols" stroke="none" stroke-width="1" fill="none" fill-rule="evenodd">
        <g id="Footer" transform="translate(-1011.000000, -131.000000)">
            <g id="Group-6" transform="translate(1011.000000, 131.000000)">
                <g id="Group-4">
                    <circle id="Oval-Copy" fill="#FFFFFF" cx="11" cy="11" r="11"></circle>
                    <g id="Group" transform="translate(5.041667, 4.583333)" fill="#101032">
                        <polygon id="Path" points="0 3.97222222 2.64814815 3.97222222 2.64814815 12.5787037 0 12.5787037"></polygon>
                        <path d="M1.31749319,2.64814815 L1.30169906,2.64814815 C0.511992858,2.64814815 0,2.06470665 0,1.3258726 C0,0.571930937 0.527128893,0 1.33262922,0 C2.13747147,0 2.63235402,0.570492117 2.64814815,1.32371437 C2.64814815,2.06254842 2.13747147,2.64814815 1.31749319,2.64814815 L1.31749319,2.64814815 Z" id="Path"></path>
                        <path d="M11.9166667,12.5787037 L9.2598013,12.5787037 L9.2598013,8.16699816 C9.2598013,7.01245056 8.84420225,6.22507641 7.93030842,6.22507641 C7.23128213,6.22507641 6.84254152,6.75615224 6.66160043,7.26955232 C6.59374753,7.45273732 6.60434955,7.70903564 6.60434955,7.96613741 L6.60434955,12.5787037 L3.97222222,12.5787037 C3.97222222,12.5787037 4.00614868,4.76441703 3.97222222,4.05417341 L6.60434955,4.05417341 L6.60434955,5.39190601 C6.75984579,4.80699951 7.60093911,3.97222222 8.94315441,3.97222222 C10.6083778,3.97222222 11.9166667,5.19907969 11.9166667,7.83838997 L11.9166667,12.5787037 L11.9166667,12.5787037 Z" id="Path"></path>
                    </g>
                </g>
            </g>
        </g>
    </g>
</svg>