<?xml version="1.0" encoding="UTF-8"?>
<svg width="22px" height="22px" viewBox="0 0 22 22" version="1.1" xmlns="http://www.w3.org/2000/svg" xmlns:xlink="http://www.w3.org/1999/xlink">
    <!-- Generator: sketchtool 52.2 (67145) - http://www.bohemiancoding.com/sketch -->
    <title>B85BC876-4F61-43F7-829B-297E7137D319</title>
    <desc>Created with sketchtool.</desc>
    <g id="Symbols" stroke="none" stroke-width="1" fill="none" fill-rule="evenodd">
        <g id="Footer" transform="translate(-1108.000000, -65.000000)">
            <g id="Group-7-Copy-2" transform="translate(1108.000000, 65.000000)">
                <g id="Group-2">
                    <circle id="Oval-Copy-2" fill="#FFFFFF" cx="11" cy="11" r="11"></circle>
                    <path d="M16.9583333,7.84296527 L16.4872862,7.84296527 C16.3123652,7.84296527 16.0644456,8.10235654 16.0644456,8.26845177 L16.0644456,14.2796855 C16.0644456,14.4457807 16.3123652,14.6719529 16.4872862,14.6719529 L16.9583333,14.6719529 L16.9583333,16.0989583 L12.687919,16.0989583 L12.687919,14.6719529 L13.5818067,14.6719529 L13.5818067,8.35255957 L13.5384208,8.35255957 L11.4510759,16.0989583 L9.83546675,16.0989583 L7.77497977,8.35255957 L7.7226412,8.35255957 L7.7226412,14.6719529 L8.61652893,14.6719529 L8.61652893,16.0989583 L5.04166667,16.0989583 L5.04166667,14.6719529 L5.49962918,14.6719529 C5.68832351,14.6719529 5.9355544,14.4457807 5.9355544,14.2796855 L5.9355544,8.26845177 C5.9355544,8.10235654 5.68832351,7.84296527 5.49962918,7.84296527 L5.04166667,7.84296527 L5.04166667,6.41666667 L9.511794,6.41666667 L10.9800287,12.0222039 L11.0199713,12.0222039 L12.5012906,6.41666667 L16.9583333,6.41666667 L16.9583333,7.84296527" id="Shape" fill="#101032"></path>
                </g>
            </g>
        </g>
    </g>
</svg>