<?xml version="1.0" encoding="UTF-8"?>
<svg width="22px" height="22px" viewBox="0 0 22 22" version="1.1" xmlns="http://www.w3.org/2000/svg" xmlns:xlink="http://www.w3.org/1999/xlink">
    <!-- Generator: sketchtool 52.2 (67145) - http://www.bohemiancoding.com/sketch -->
    <title>06676C62-AB44-4F55-87B5-A4B07F7D6A8B</title>
    <desc>Created with sketchtool.</desc>
    <g id="Symbols" stroke="none" stroke-width="1" fill="none" fill-rule="evenodd">
        <g id="Footer" transform="translate(-1108.000000, -131.000000)">
            <g id="reddit" transform="translate(1108.000000, 131.000000)">
                <g id="Group-2" fill="#FFFFFF">
                    <circle id="Oval-Copy-2" cx="11" cy="11" r="11"></circle>
                </g>
                <path d="M19,10.4875625 C19,9.2480625 17.9915625,8.239625 16.7520625,8.239625 C16.2635625,8.239625 15.7988125,8.39440625 15.4138125,8.68090625 C14.3221563,8.1324375 13.0274688,7.80090625 11.655625,7.71996875 L12.5525,5.24146875 L14.7203437,5.7833125 C14.7686875,6.67259375 15.5071875,7.38121875 16.4083125,7.38121875 C17.3405625,7.38121875 18.098875,6.6228125 18.098875,5.6906875 C18.098875,4.7584375 17.3405625,4 16.4083125,4 C15.7739375,4 15.2203437,4.3514375 14.9311563,4.869625 L11.958875,4.12671875 L10.6639375,7.7053125 C9.17284375,7.74890625 7.75965625,8.08728125 6.58178125,8.677625 C6.19775,8.3933125 5.734625,8.2395 5.2479375,8.2395 C4.0084375,8.239625 3,9.2480625 3,10.4875625 C3,11.0949688 3.24975,11.677125 3.6795625,12.0972813 C3.65125,12.275875 3.63646875,12.4567813 3.63646875,12.6395313 C3.63646875,13.9978125 4.42896875,15.26 5.86790625,16.1937188 C7.24425,17.0867813 9.0649375,17.578625 10.99475,17.578625 C12.9244375,17.578625 14.74525,17.0867813 16.1214687,16.1937188 C17.5605625,15.26 18.3530313,13.9978125 18.3530313,12.6395313 C18.3530313,12.4598438 18.33875,12.281875 18.3114063,12.1060938 C18.7467187,11.6853125 19,11.09925 19,10.4875625 Z M16.4083125,4.9375 C16.8235938,4.9375 17.161375,5.275375 17.161375,5.6906875 C17.161375,6.10596875 16.8235938,6.44371875 16.4083125,6.44371875 C15.9930312,6.44371875 15.6551562,6.10596875 15.6551562,5.6906875 C15.6551562,5.275375 15.9930312,4.9375 16.4083125,4.9375 Z M18.0625,10.4875625 C18.0625,10.6729688 18.0246562,10.8513125 17.953375,11.0144063 C17.6175625,10.3571875 17.0756875,9.75428125 16.3495,9.24025 C16.4779063,9.19884375 16.6132812,9.177125 16.7520625,9.177125 C17.474625,9.177125 18.0625,9.765 18.0625,10.4875625 Z M3.9375,10.4875625 C3.9375,9.765 4.525375,9.177125 5.2479375,9.177125 C5.38415625,9.177125 5.51709375,9.198 5.6433125,9.23778125 C4.9195625,9.749375 4.37865625,10.34925 4.042,11.0031875 C3.97375,10.843125 3.9375,10.6686875 3.9375,10.4875625 Z M15.6112187,15.4072188 C14.385,16.202875 12.7454688,16.641125 10.99475,16.641125 C9.24390625,16.641125 7.6045,16.202875 6.3781875,15.4072188 C5.21471875,14.6522188 4.57396875,13.6693125 4.57396875,12.6395313 C4.57396875,11.609625 5.21471875,10.6265938 6.3781875,9.87171875 C7.6045,9.0760625 9.24390625,8.6378125 10.99475,8.6378125 C12.7454688,8.6378125 14.385,9.0760625 15.6112187,9.87171875 C16.7746562,10.6265938 17.4155313,11.609625 17.4155313,12.6395313 C17.4155313,13.6693125 16.7746562,14.6522188 15.6112187,15.4072188 Z" id="Fill-1" fill="#0E0E2E"></path>
                <path d="M11.0852187,14.7857812 C10.2476875,14.7857812 9.43128125,14.5485937 8.724125,14.0998437 L8.2216875,14.8913437 C9.07934375,15.4356562 10.0694687,15.7232812 11.0852187,15.7232812 C12.1009375,15.7232812 13.0910625,15.4356562 13.9487187,14.8913437 L13.4462812,14.0998437 C12.73925,14.5485937 11.9227187,14.7857812 11.0852187,14.7857812 Z" id="Fill-4" fill="#0E0E2E"></path>
                <path d="M10.0995,11.7989375 C10.0995,11.0770313 9.51221875,10.48975 8.79028125,10.48975 C8.068375,10.48975 7.48109375,11.0770313 7.48109375,11.7989375 C7.48109375,12.520875 8.068375,13.1082813 8.79028125,13.1082813 C9.51221875,13.1082813 10.0995,12.520875 10.0995,11.7989375 Z M8.41859375,11.7989375 C8.41859375,11.594 8.5853125,11.42725 8.79028125,11.42725 C8.995375,11.42725 9.162125,11.594 9.162125,11.7989375 C9.162125,12.0040313 8.995375,12.1707813 8.79028125,12.1707813 C8.5853125,12.1707813 8.41859375,12.0039063 8.41859375,11.7989375 Z" id="Fill-5" fill="#0E0E2E"></path>
                <path d="M13.4073438,10.48975 C12.6854375,10.48975 12.0981563,11.0770313 12.0981563,11.7989375 C12.0981563,12.520875 12.6854375,13.1082813 13.4073438,13.1082813 C14.1292813,13.1082813 14.7165625,12.520875 14.7165625,11.7989375 C14.7165625,11.0770313 14.1292813,10.48975 13.4073438,10.48975 Z M13.4073438,12.1707813 C13.2024063,12.1707813 13.0356563,12.0039063 13.0356563,11.7989375 C13.0356563,11.594 13.2024063,11.42725 13.4073438,11.42725 C13.6123125,11.42725 13.7790625,11.594 13.7790625,11.7989375 C13.7790625,12.0040313 13.6123125,12.1707813 13.4073438,12.1707813 Z" id="Fill-6" fill="#0E0E2E"></path>
            </g>
        </g>
    </g>
</svg>