<?xml version="1.0" encoding="UTF-8"?>
<svg width="22px" height="22px" viewBox="0 0 22 22" version="1.1" xmlns="http://www.w3.org/2000/svg" xmlns:xlink="http://www.w3.org/1999/xlink">
    <!-- Generator: sketchtool 52.2 (67145) - http://www.bohemiancoding.com/sketch -->
    <title>EE50E9E8-6F82-406D-B1BA-BD9379BEBF24</title>
    <desc>Created with sketchtool.</desc>
    <g id="Symbols" stroke="none" stroke-width="1" fill="none" fill-rule="evenodd">
        <g id="Footer" transform="translate(-1108.000000, -98.000000)">
            <g id="Group-8" transform="translate(1108.000000, 98.000000)">
                <g id="Group-7-Copy">
                    <g id="Group-2">
                        <g id="Group-13">
                            <g id="Group-15">
                                <circle id="Oval-Copy-2" fill="#FFFFFF" cx="11" cy="11" r="11"></circle>
                                <path d="M16.1014726,5.04606665 L3.29740799,10.035745 C2.88261682,10.197397 2.9078257,10.7925367 3.33474865,10.9184761 L6.58848025,11.8791971 L7.80276066,15.7323225 C7.92954034,16.1348243 8.43954756,16.2567197 8.73475409,15.955316 L10.4169744,14.2375932 L13.7176576,16.6604295 C14.1215774,16.9568965 14.6968126,16.7365288 14.7993812,16.246216 L16.9854641,5.79466545 C17.0925494,5.28261 16.5888969,4.85610721 16.1014726,5.04606665 Z M14.4961919,7.36549401 L8.54889109,12.6249074 C8.4895977,12.6772158 8.45183689,12.7498489 8.44301378,12.8284166 L8.21408561,14.8639289 C8.20647043,14.9304174 8.11356519,14.9392405 8.09387075,14.8754305 L7.15158369,11.8395982 C7.10851851,11.7007392 7.16471331,11.5501162 7.28844692,11.4734391 L14.3117469,7.1174491 C14.4731888,7.01734882 14.6385696,7.23950211 14.4961919,7.36549401 Z" id="Fill-2" fill="#0E0E2E"></path>
                            </g>
                        </g>
                    </g>
                </g>
            </g>
        </g>
    </g>
</svg>