<?xml version="1.0" encoding="UTF-8"?>
<svg width="22px" height="22px" viewBox="0 0 22 22" version="1.1" xmlns="http://www.w3.org/2000/svg" xmlns:xlink="http://www.w3.org/1999/xlink">
    <!-- Generator: sketchtool 52.2 (67145) - http://www.bohemiancoding.com/sketch -->
    <title>19788B83-95E3-407F-942D-457864BBFBEC</title>
    <desc>Created with sketchtool.</desc>
    <g id="Symbols" stroke="none" stroke-width="1" fill="none" fill-rule="evenodd">
        <g id="Footer" transform="translate(-1011.000000, -99.000000)">
            <g id="Group-5" transform="translate(1011.000000, 99.000000)">
                <g id="Group-3">
                    <circle id="Oval" fill="#FFFFFF" cx="11" cy="11" r="11"></circle>
                    <path d="M15.9048688,7.29020698 C16.4487243,6.93690894 16.8660318,6.37670255 17.06188,5.7093618 C16.5526746,6.03730744 15.9899875,6.27447511 15.3896373,6.40287278 C14.9105623,5.84675549 14.2258467,5.5 13.4680646,5.5 C12.014268,5.5 10.8361654,6.77988759 10.8361654,8.35827931 C10.8361654,8.58236186 10.85801,8.80071968 10.9032058,9.00926367 C8.71573145,8.88986201 6.77608049,7.75309284 5.47670267,6.02258669 C5.24997065,6.44621721 5.1204095,6.93690894 5.1204095,7.46031345 C5.1204095,8.45151074 5.58517247,9.32657765 6.2917327,9.84016832 C5.86011328,9.82544757 5.45410479,9.69541426 5.09856489,9.48278118 L5.09856489,9.51794742 C5.09856489,10.9033337 6.00549295,12.0589127 7.21146622,12.320615 C6.99000704,12.3876762 6.75800219,12.4212068 6.51695819,12.4212068 C6.34747412,12.4212068 6.18175637,12.4040326 6.02206472,12.370502 C6.35651328,13.5056355 7.32897517,14.3332689 8.48146681,14.35535 C7.57981159,15.1224648 6.44464499,15.5788081 5.21155426,15.5788081 C4.99913424,15.5788081 4.788974,15.5665408 4.58333333,15.5395527 C5.74863043,16.3500119 7.13237366,16.8235294 8.61931385,16.8235294 C13.4627918,16.8235294 16.1097562,12.4678225 16.1097562,8.69031404 C16.1097562,8.56600547 16.1082497,8.44251472 16.1029769,8.32065961 C16.6174551,7.91747457 17.0648931,7.41369773 17.4166667,6.84040623 C16.9443711,7.06776007 16.4366721,7.22151014 15.9048688,7.29020698 Z" id="Shape" fill="#101032"></path>
                </g>
            </g>
        </g>
    </g>
</svg>